<svg xmlns="http://www.w3.org/2000/svg" width="70" height="70" viewBox="0 0 70 70">
  <g id="Activity_gauge" data-name="Activity gauge" transform="translate(-14 -14)">
    <g id="Circle_3" data-name="Circle 3" transform="translate(14.5 14.5)">
      <path id="Exclusion_4" data-name="Exclusion 4" d="M34.5,69A34.509,34.509,0,0,1,21.07,2.711,34.509,34.509,0,0,1,47.928,66.289,34.286,34.286,0,0,1,34.5,69Zm0-61.132A26.548,26.548,0,1,0,44.865,9.961,26.461,26.461,0,0,0,34.5,7.868Z" transform="translate(0.001 0)" fill="#fff" stroke="#2a2a2a" stroke-width="1"/>
      <path id="Union_5" data-name="Union 5" d="M21.07,66.288A34.476,34.476,0,0,1,0,34.5c0-.154,0-.308,0-.461,0-.048,0-.1,0-.144a3.632,3.632,0,0,1,7.253-.276h.629c-.009.284-.014.58-.014.88a26.638,26.638,0,0,0,51.17,10.366A26.624,26.624,0,0,0,35.1,7.874V7.262A3.631,3.631,0,1,1,35.1,0q.137,0,.272.01A34.489,34.489,0,0,1,58.894,58.894,34.54,34.54,0,0,1,21.07,66.288Z" transform="translate(0 0.001)" fill="#24313d" stroke="#2a2a2a" stroke-width="1"/>
    </g>
    <g id="Circle_2" data-name="Circle 2" transform="translate(21.763 21.764)">
      <path id="Exclusion_2" data-name="Exclusion 2" d="M27.237,54.473A27.244,27.244,0,0,1,16.636,2.14a27.244,27.244,0,0,1,21.2,50.193A27.062,27.062,0,0,1,27.237,54.473Zm.6-48.421A20.578,20.578,0,0,0,13.291,41.181a20.578,20.578,0,1,0,29.1-29.1A20.444,20.444,0,0,0,27.842,6.052Z" transform="translate(0 0)" fill="#fff" stroke="#2a2a2a" stroke-width="1"/>
      <path id="Union_4" data-name="Union 4" d="M9.908,52.332a27.132,27.132,0,0,1-8.626-5.805,3.8,3.8,0,0,1-.439-5.254,3.792,3.792,0,0,1,5.269-.956,3.4,3.4,0,0,1,1.135,1.518A20.579,20.579,0,1,0,21.114,6.052c-2.006,0-3.631-1.355-3.631-3.027S19.108,0,21.114,0q.2,0,.4.018a27.244,27.244,0,0,1,9.6,52.314,27.321,27.321,0,0,1-21.2,0Z" transform="translate(6.727 0)" fill="#ffac46" stroke="#2a2a2a" stroke-width="1"/>
    </g>
    <g id="Circle_1" data-name="Circle 1" transform="translate(28.421 27.21)">
      <g id="Subtraction_6" data-name="Subtraction 6" transform="translate(0)" fill="#fff">
        <path d="M 21.18354415893555 41.8681526184082 C 15.65865421295166 41.8681526184082 10.46450424194336 39.7165641784668 6.557914257049561 35.80972290039062 C 2.651414394378662 31.9029541015625 0.5000044107437134 26.70856475830078 0.5000044107437134 21.18341445922852 C 0.5000044107437134 15.65838432312012 2.65140438079834 10.46428394317627 6.557904243469238 6.557914257049561 C 10.46440410614014 2.65140438079834 15.65855407714844 0.5000044107437134 21.18354415893555 0.5000044107437134 C 26.70857429504395 0.5000044107437134 31.90296363830566 2.651414394378662 35.80985260009766 6.557924270629883 C 39.71661376953125 10.46428394317627 41.8681526184082 15.65838432312012 41.8681526184082 21.18341445922852 C 41.8681526184082 26.70843505859375 39.71660614013672 31.90282440185547 35.80983352661133 35.80971527099609 C 31.90287399291992 39.716552734375 26.7084846496582 41.8681526184082 21.18354415893555 41.8681526184082 Z M 21.18354415893555 7.972674369812012 C 13.89970397949219 7.972674369812012 7.973864555358887 13.8989839553833 7.973864555358887 21.18341445922852 C 7.973864555358887 28.46791458129883 13.89970397949219 34.39428329467773 21.18354415893555 34.39428329467773 C 28.46804428100586 34.39428329467773 34.39441299438477 28.46791458129883 34.39441299438477 21.18341445922852 C 34.39441299438477 13.8989839553833 28.46804428100586 7.972674369812012 21.18354415893555 7.972674369812012 Z" stroke="none"/>
        <path d="M 21.18354415893555 41.3681526184082 C 26.5749340057373 41.3681526184082 31.64375495910645 39.2685661315918 35.45627593994141 35.4561653137207 C 39.26860427856445 31.64371490478516 41.3681526184082 26.57488441467285 41.3681526184082 21.18341445922852 C 41.3681526184082 15.79195404052734 39.26862335205078 10.72341442108154 35.45632553100586 6.911494255065918 C 31.64386367797852 3.099414348602295 26.57503509521484 1.000004410743713 21.18354415893555 1.000004410743713 C 15.7921142578125 1.000004410743713 10.72352409362793 3.099404335021973 6.911454200744629 6.911474227905273 C 3.09939432144165 10.72340393066406 1.000004410743713 15.79194450378418 1.000004410743713 21.18341445922852 C 1.000004410743713 26.57501411437988 3.099404335021973 31.64384460449219 6.911484241485596 35.45618438720703 C 10.72363471984863 39.26857376098633 15.79221439361572 41.3681526184082 21.18354415893555 41.3681526184082 M 21.18354415893555 7.472674369812012 C 28.74374389648438 7.472674369812012 34.89441299438477 13.62328433990479 34.89441299438477 21.18341445922852 C 34.89441299438477 28.74361419677734 28.74374389648438 34.89428329467773 21.18354415893555 34.89428329467773 C 13.62400436401367 34.89428329467773 7.473864555358887 28.74361419677734 7.473864555358887 21.18341445922852 C 7.473864555358887 13.62328433990479 13.62400436401367 7.472674369812012 21.18354415893555 7.472674369812012 M 21.18354415893555 42.3681526184082 C 15.52514457702637 42.3681526184082 10.20538425445557 40.16455459594727 6.204354286193848 36.16326522827148 C 2.203324317932129 32.16196441650391 4.40185567640583e-06 26.84207534790039 4.40185567640583e-06 21.18341445922852 C 4.40185567640583e-06 15.52488422393799 2.203324317932129 10.20525455474854 6.204354286193848 6.204354286193848 C 10.20538425445557 2.203324317932129 15.5252742767334 4.40185567640583e-06 21.18354415893555 4.40185567640583e-06 C 26.84207534790039 4.40185567640583e-06 32.1619758605957 2.203324317932129 36.16339492797852 6.204354286193848 C 40.16469573974609 10.20525455474854 42.3681526184082 15.52488422393799 42.3681526184082 21.18341445922852 C 42.3681526184082 26.84194374084473 40.16469573974609 32.16183471679688 36.16339492797852 36.16326522827148 C 32.1619758605957 40.16455459594727 26.84207534790039 42.3681526184082 21.18354415893555 42.3681526184082 Z M 21.18354415893555 8.472674369812012 C 14.17537403106689 8.472674369812012 8.473864555358887 14.17471408843994 8.473864555358887 21.18341445922852 C 8.473864555358887 28.1922435760498 14.17537403106689 33.89428329467773 21.18354415893555 33.89428329467773 C 28.19237518310547 33.89428329467773 33.89441299438477 28.1922435760498 33.89441299438477 21.18341445922852 C 33.89441299438477 14.17471408843994 28.19237518310547 8.472674369812012 21.18354415893555 8.472674369812012 Z" stroke="none" fill="#2a2a2a"/>
      </g>
      <path id="Union_3" data-name="Union 3" d="M3.631,41.159h0a3.632,3.632,0,0,1,0-7.264h.075a13.231,13.231,0,0,0,9.337-3.905,13.225,13.225,0,0,0,3.9-9.411A13.33,13.33,0,0,0,3.631,7.264,3.632,3.632,0,0,1,3.631,0h.1a20.439,20.439,0,0,1,14.45,6.027,20.58,20.58,0,0,1,0,29.1,20.447,20.447,0,0,1-14.55,6.028Z" transform="translate(17.553 0.605)" fill="#d9f3f4" stroke="#2a2a2a" stroke-width="1"/>
    </g>
  </g>
</svg>
