<svg xmlns="http://www.w3.org/2000/svg" width="69.799" height="69.638" viewBox="0 0 69.799 69.638">
  <g id="Scatter_Chart" data-name="Scatter Chart" transform="translate(-13.25 -12.997)">
    <path id="Line" d="M6.9,6.94V75.578H75.7" transform="translate(6.85 6.557)" fill="none" stroke="#2a2a2a" stroke-linecap="round" stroke-linejoin="round" stroke-miterlimit="10" stroke-width="1"/>
    <g id="Group_12" data-name="Group 12" transform="translate(13.75 20.88)">
      <line id="Line_24" data-name="Line 24" x2="2.474" transform="translate(0 15.269)" fill="none" stroke="#2a2a2a" stroke-linecap="round" stroke-linejoin="round" stroke-miterlimit="10" stroke-width="1"/>
      <line id="Line_25" data-name="Line 25" x2="2.474" fill="none" stroke="#2a2a2a" stroke-linecap="round" stroke-linejoin="round" stroke-miterlimit="10" stroke-width="1"/>
      <line id="Line_26" data-name="Line 26" x2="2.474" transform="translate(0 29.974)" fill="none" stroke="#2a2a2a" stroke-linecap="round" stroke-linejoin="round" stroke-miterlimit="10" stroke-width="1"/>
      <line id="Line_27" data-name="Line 27" x2="2.474" transform="translate(0 44.679)" fill="none" stroke="#2a2a2a" stroke-linecap="round" stroke-linejoin="round" stroke-miterlimit="10" stroke-width="1"/>
    </g>
    <g id="Group_13" data-name="Group 13" transform="translate(29.019 79.661)">
      <line id="Line_28" data-name="Line 28" y1="2.474" fill="none" stroke="#2a2a2a" stroke-linecap="round" stroke-linejoin="round" stroke-miterlimit="10" stroke-width="1"/>
      <line id="Line_29" data-name="Line 29" y1="2.474" transform="translate(14.705)" fill="none" stroke="#2a2a2a" stroke-linecap="round" stroke-linejoin="round" stroke-miterlimit="10" stroke-width="1"/>
      <line id="Line_30" data-name="Line 30" y1="2.474" transform="translate(44.176)" fill="none" stroke="#2a2a2a" stroke-linecap="round" stroke-linejoin="round" stroke-miterlimit="10" stroke-width="1"/>
      <line id="Line_31" data-name="Line 31" y1="2.474" transform="translate(29.41)" fill="none" stroke="#2a2a2a" stroke-linecap="round" stroke-linejoin="round" stroke-miterlimit="10" stroke-width="1"/>
    </g>
    <g id="Group_18" data-name="Group 18" transform="translate(18.115 20.679)">
      <g id="Group_14" data-name="Group 14">
        <path id="Path_47" data-name="Path 47" d="M10.82,10.912H9.271a.2.2,0,0,1-.2-.2.19.19,0,0,1,.2-.2H10.8a.2.2,0,0,1,.2.2A.186.186,0,0,1,10.82,10.912Z" transform="translate(-9.07 -10.51)" fill="#303030"/>
      </g>
      <g id="Group_15" data-name="Group 15" transform="translate(4.204)">
        <path id="Path_48" data-name="Path 48" d="M19.347,10.912H16.672a.2.2,0,0,1-.2-.2.19.19,0,0,1,.2-.2h2.655a.2.2,0,0,1,.2.2A.186.186,0,0,1,19.347,10.912Zm-5.331,0H11.361a.2.2,0,0,1-.2-.2.19.19,0,0,1,.2-.2h2.655a.2.2,0,1,1,0,.4Z" transform="translate(-11.16 -10.51)" fill="#303030"/>
      </g>
      <g id="Group_16" data-name="Group 16" transform="translate(14.846)">
        <path id="Path_49" data-name="Path 49" d="M61.853,10.912H59.2a.2.2,0,0,1-.2-.2.19.19,0,0,1,.2-.2h2.655a.2.2,0,0,1,0,.4Zm-5.331,0H55.376a.2.2,0,0,1-.2-.2.19.19,0,0,1,.2-.2h1.147a.2.2,0,0,1,.2.2A.19.19,0,0,1,56.522,10.912Zm-5.311,0H48.556a.2.2,0,0,1-.2-.2.19.19,0,0,1,.2-.2h2.655a.2.2,0,0,1,0,.4Zm-5.311,0H43.245a.2.2,0,0,1-.2-.2.19.19,0,0,1,.2-.2H45.9a.2.2,0,1,1,0,.4Zm-5.331,0H37.914a.2.2,0,0,1-.2-.2.19.19,0,0,1,.2-.2H40.57a.2.2,0,0,1,0,.4Zm-5.311,0H32.6a.2.2,0,0,1-.2-.2.19.19,0,0,1,.2-.2h2.655a.2.2,0,1,1,0,.4Zm-5.311,0H27.293a.2.2,0,0,1-.2-.2.19.19,0,0,1,.2-.2h2.655a.2.2,0,0,1,0,.4Zm-5.331,0H21.962a.2.2,0,0,1-.2-.2.19.19,0,0,1,.2-.2h2.655a.2.2,0,1,1,0,.4Zm-5.311,0H16.651a.2.2,0,0,1-.2-.2.19.19,0,0,1,.2-.2h2.655a.2.2,0,1,1,0,.4Z" transform="translate(-16.45 -10.51)" fill="#303030"/>
      </g>
      <g id="Group_17" data-name="Group 17" transform="translate(62.703)">
        <path id="Path_50" data-name="Path 50" d="M41.97,10.912H40.441a.2.2,0,0,1-.2-.2.19.19,0,0,1,.2-.2H41.97a.2.2,0,0,1,0,.4Z" transform="translate(-40.24 -10.51)" fill="#303030"/>
      </g>
    </g>
    <g id="Group_23" data-name="Group 23" transform="translate(18.115 35.948)">
      <g id="Group_19" data-name="Group 19">
        <path id="Path_51" data-name="Path 51" d="M10.82,18.5H9.271a.2.2,0,0,1,0-.4H10.8a.2.2,0,0,1,.2.2A.2.2,0,0,1,10.82,18.5Z" transform="translate(-9.07 -18.1)" fill="#303030"/>
      </g>
      <g id="Group_20" data-name="Group 20" transform="translate(4.204)">
        <path id="Path_52" data-name="Path 52" d="M19.347,18.5H16.672a.2.2,0,1,1,0-.4h2.655a.2.2,0,0,1,.2.2A.2.2,0,0,1,19.347,18.5Zm-5.331,0H11.361a.2.2,0,0,1,0-.4h2.655a.2.2,0,0,1,.2.2A.216.216,0,0,1,14.017,18.5Z" transform="translate(-11.16 -18.1)" fill="#303030"/>
      </g>
      <g id="Group_21" data-name="Group 21" transform="translate(14.846)">
        <path id="Path_53" data-name="Path 53" d="M61.853,18.5H59.2a.2.2,0,0,1,0-.4h2.655a.2.2,0,0,1,.2.2A.234.234,0,0,1,61.853,18.5Zm-5.331,0H53.867a.2.2,0,0,1,0-.4h2.655a.2.2,0,0,1,0,.4ZM45.9,18.5H43.245a.2.2,0,0,1,0-.4H45.9a.2.2,0,0,1,.2.2A.235.235,0,0,1,45.9,18.5Zm-5.331,0H37.914a.2.2,0,0,1,0-.4H40.57a.2.2,0,0,1,.2.2A.216.216,0,0,1,40.57,18.5Zm-10.622,0H27.293a.2.2,0,1,1,0-.4h2.655a.2.2,0,0,1,.2.2A.234.234,0,0,1,29.948,18.5Zm-5.331,0H21.962a.2.2,0,0,1,0-.4h2.655a.2.2,0,0,1,.2.2A.216.216,0,0,1,24.617,18.5Zm-5.311,0H16.651a.2.2,0,0,1,0-.4h2.655a.2.2,0,0,1,.2.2A.235.235,0,0,1,19.307,18.5Z" transform="translate(-16.45 -18.1)" fill="#303030"/>
      </g>
      <g id="Group_22" data-name="Group 22" transform="translate(62.703)">
        <path id="Path_54" data-name="Path 54" d="M41.97,18.5H40.441a.2.2,0,0,1,0-.4H41.97a.2.2,0,0,1,.2.2A.216.216,0,0,1,41.97,18.5Z" transform="translate(-40.24 -18.1)" fill="#303030"/>
      </g>
    </g>
    <g id="Group_28" data-name="Group 28" transform="translate(18.115 50.653)">
      <g id="Group_24" data-name="Group 24">
        <path id="Path_55" data-name="Path 55" d="M10.82,25.812H9.271a.2.2,0,0,1-.2-.2.19.19,0,0,1,.2-.2H10.8a.2.2,0,0,1,.2.2A.186.186,0,0,1,10.82,25.812Z" transform="translate(-9.07 -25.41)" fill="#303030"/>
      </g>
      <g id="Group_25" data-name="Group 25" transform="translate(4.204)">
        <path id="Path_56" data-name="Path 56" d="M19.347,25.812H16.672a.2.2,0,0,1-.2-.2.19.19,0,0,1,.2-.2h2.655a.2.2,0,0,1,.2.2A.186.186,0,0,1,19.347,25.812Zm-5.331,0H11.361a.2.2,0,0,1-.2-.2.19.19,0,0,1,.2-.2h2.655a.2.2,0,1,1,0,.4Z" transform="translate(-11.16 -25.41)" fill="#303030"/>
      </g>
      <g id="Group_26" data-name="Group 26" transform="translate(14.846)">
        <path id="Path_57" data-name="Path 57" d="M61.853,25.812H59.2a.2.2,0,0,1-.2-.2.19.19,0,0,1,.2-.2h2.655a.2.2,0,1,1,0,.4Zm-5.331,0H53.867a.2.2,0,0,1-.2-.2.19.19,0,0,1,.2-.2h2.655a.2.2,0,0,1,.2.2A.19.19,0,0,1,56.522,25.812Zm-5.311,0H48.556a.2.2,0,0,1-.2-.2.19.19,0,0,1,.2-.2h2.655a.2.2,0,0,1,0,.4Zm-5.311,0H44.754a.2.2,0,0,1-.2-.2.19.19,0,0,1,.2-.2H45.9a.2.2,0,1,1,0,.4Zm-6.256,0h-1.71a.2.2,0,0,1-.2-.2.19.19,0,0,1,.2-.2h1.71a.2.2,0,1,1,0,.4Zm-4.385,0H32.6a.2.2,0,0,1-.2-.2.19.19,0,0,1,.2-.2h2.655a.2.2,0,1,1,0,.4Zm-5.311,0H27.293a.2.2,0,0,1-.2-.2.19.19,0,0,1,.2-.2h2.655a.2.2,0,1,1,0,.4Zm-5.331,0H22.505c-.1,0-.1-.08-.1-.2a.19.19,0,0,1,.2-.2h2.032a.2.2,0,0,1,.2.2A.219.219,0,0,1,24.617,25.812Zm-6.5,0H16.651a.2.2,0,0,1-.2-.2.19.19,0,0,1,.2-.2H18.12a.2.2,0,1,1,0,.4Z" transform="translate(-16.45 -25.41)" fill="#303030"/>
      </g>
      <g id="Group_27" data-name="Group 27" transform="translate(62.703)">
        <path id="Path_58" data-name="Path 58" d="M41.97,25.812H40.441a.2.2,0,0,1-.2-.2.19.19,0,0,1,.2-.2H41.97a.2.2,0,1,1,0,.4Z" transform="translate(-40.24 -25.41)" fill="#303030"/>
      </g>
    </g>
    <g id="Group_33" data-name="Group 33" transform="translate(18.115 65.358)">
      <g id="Group_29" data-name="Group 29">
        <path id="Path_59" data-name="Path 59" d="M10.82,33.122H9.271a.2.2,0,0,1-.2-.2.19.19,0,0,1,.2-.2H10.8a.2.2,0,0,1,.2.2A.186.186,0,0,1,10.82,33.122Z" transform="translate(-9.07 -32.72)" fill="#303030"/>
      </g>
      <g id="Group_30" data-name="Group 30" transform="translate(4.204)">
        <path id="Path_60" data-name="Path 60" d="M14.017,33.122H11.361a.2.2,0,0,1-.2-.2.19.19,0,0,1,.2-.2h2.655a.2.2,0,1,1,0,.4Z" transform="translate(-11.16 -32.72)" fill="#303030"/>
      </g>
      <g id="Group_31" data-name="Group 31" transform="translate(14.846)">
        <path id="Path_61" data-name="Path 61" d="M61.853,33.122H59.2a.2.2,0,0,1-.2-.2.19.19,0,0,1,.2-.2h2.655a.2.2,0,1,1,0,.4Zm-5.331,0H53.867a.2.2,0,0,1-.2-.2.19.19,0,0,1,.2-.2h2.655a.2.2,0,0,1,.2.2A.19.19,0,0,1,56.522,33.122Zm-5.311,0H48.556a.2.2,0,0,1-.2-.2.19.19,0,0,1,.2-.2h2.655a.2.2,0,0,1,0,.4Zm-5.311,0H43.245a.2.2,0,0,1-.2-.2.19.19,0,0,1,.2-.2H45.9a.2.2,0,1,1,0,.4Zm-5.331,0H37.914a.2.2,0,0,1-.2-.2.19.19,0,0,1,.2-.2H40.57a.2.2,0,1,1,0,.4Zm-10.622,0H27.293a.2.2,0,0,1-.2-.2.19.19,0,0,1,.2-.2h2.655a.2.2,0,1,1,0,.4Zm-5.331,0H21.962a.2.2,0,0,1-.2-.2.19.19,0,0,1,.2-.2h2.655a.2.2,0,1,1,0,.4Zm-5.311,0H16.651a.2.2,0,0,1-.2-.2.19.19,0,0,1,.2-.2h2.655a.2.2,0,1,1,0,.4Z" transform="translate(-16.45 -32.72)" fill="#303030"/>
      </g>
      <g id="Group_32" data-name="Group 32" transform="translate(62.703)">
        <path id="Path_62" data-name="Path 62" d="M41.97,33.122H40.441a.2.2,0,0,1-.2-.2.19.19,0,0,1,.2-.2H41.97a.2.2,0,1,1,0,.4Z" transform="translate(-40.24 -32.72)" fill="#303030"/>
      </g>
    </g>
    <g id="Group_38" data-name="Group 38" transform="translate(72.993 13.296)">
      <g id="Group_34" data-name="Group 34">
        <path id="Path_63" data-name="Path 63" d="M36.551,8.771a.2.2,0,0,1-.2-.2V7.041a.2.2,0,0,1,.2-.2.19.19,0,0,1,.2.2V8.57A.2.2,0,0,1,36.551,8.771Z" transform="translate(-36.35 -6.84)" fill="#303030"/>
      </g>
      <g id="Group_35" data-name="Group 35" transform="translate(0 4.204)">
        <path id="Path_64" data-name="Path 64" d="M36.551,17.3a.2.2,0,0,1-.2-.2V14.442a.2.2,0,0,1,.2-.2.19.19,0,0,1,.2.2V17.1A.216.216,0,0,1,36.551,17.3Zm0-5.331a.2.2,0,0,1-.2-.2V9.131a.2.2,0,0,1,.2-.2.19.19,0,0,1,.2.2v2.655A.2.2,0,0,1,36.551,11.968Z" transform="translate(-36.35 -8.93)" fill="#303030"/>
      </g>
      <g id="Group_36" data-name="Group 36" transform="translate(0 14.826)">
        <path id="Path_65" data-name="Path 65" d="M36.551,59.814a.2.2,0,0,1-.2-.2V56.958a.2.2,0,0,1,.2-.2.19.19,0,0,1,.2.2v2.655A.216.216,0,0,1,36.551,59.814Zm0-5.331a.2.2,0,0,1-.2-.2V51.627a.2.2,0,0,1,.2-.2.19.19,0,0,1,.2.2v2.655A.2.2,0,0,1,36.551,54.483Zm0-5.311a.2.2,0,0,1-.2-.2V46.316a.2.2,0,0,1,.2-.2.19.19,0,0,1,.2.2v2.655A.2.2,0,0,1,36.551,49.173Zm0-5.311a.2.2,0,0,1-.2-.2V41.005a.2.2,0,0,1,.2-.2.19.19,0,0,1,.2.2v2.655A.216.216,0,0,1,36.551,43.862Zm0-5.331a.2.2,0,0,1-.2-.2V35.674a.2.2,0,0,1,.2-.2.19.19,0,0,1,.2.2V38.33A.2.2,0,0,1,36.551,38.531Zm0-5.311a.2.2,0,0,1-.2-.2V30.364a.2.2,0,0,1,.2-.2.19.19,0,0,1,.2.2v2.655A.2.2,0,0,1,36.551,33.22Zm0-5.311a.2.2,0,0,1-.2-.2V25.053a.2.2,0,0,1,.2-.2.19.19,0,0,1,.2.2v2.655A.216.216,0,0,1,36.551,27.909Zm0-5.331a.2.2,0,0,1-.2-.2V19.722a.2.2,0,0,1,.2-.2.19.19,0,0,1,.2.2v2.655A.2.2,0,0,1,36.551,22.579Zm0-5.311a.2.2,0,0,1-.2-.2V14.411a.2.2,0,0,1,.2-.2.19.19,0,0,1,.2.2v2.655A.2.2,0,0,1,36.551,17.268Z" transform="translate(-36.35 -14.21)" fill="#303030"/>
      </g>
      <g id="Group_37" data-name="Group 37" transform="translate(0 62.683)">
        <path id="Path_66" data-name="Path 66" d="M36.551,39.931a.2.2,0,0,1-.2-.2V38.2a.2.2,0,0,1,.2-.2.19.19,0,0,1,.2.2V39.73A.2.2,0,0,1,36.551,39.931Z" transform="translate(-36.35 -38)" fill="#303030"/>
      </g>
    </g>
    <g id="Group_43" data-name="Group 43" transform="translate(58.228 13.296)">
      <g id="Group_39" data-name="Group 39">
        <path id="Path_67" data-name="Path 67" d="M29.211,8.771a.2.2,0,0,1-.2-.2V7.041a.2.2,0,1,1,.4,0V8.57A.2.2,0,0,1,29.211,8.771Z" transform="translate(-29.01 -6.84)" fill="#303030"/>
      </g>
      <g id="Group_40" data-name="Group 40" transform="translate(0 4.204)">
        <path id="Path_68" data-name="Path 68" d="M29.211,17.3a.2.2,0,0,1-.2-.2V14.442a.2.2,0,1,1,.4,0V17.1A.216.216,0,0,1,29.211,17.3Zm0-5.331a.2.2,0,0,1-.2-.2V9.131a.2.2,0,1,1,.4,0v2.655A.2.2,0,0,1,29.211,11.968Z" transform="translate(-29.01 -8.93)" fill="#303030"/>
      </g>
      <g id="Group_41" data-name="Group 41" transform="translate(0 14.826)">
        <path id="Path_69" data-name="Path 69" d="M29.211,59.814a.2.2,0,0,1-.2-.2V56.958a.2.2,0,1,1,.4,0v2.655A.216.216,0,0,1,29.211,59.814Zm0-5.331a.2.2,0,0,1-.2-.2V51.627a.2.2,0,1,1,.4,0v2.655A.2.2,0,0,1,29.211,54.483Zm0-5.311a.2.2,0,0,1-.2-.2V46.316a.2.2,0,1,1,.4,0v2.655A.2.2,0,0,1,29.211,49.173Zm0-5.311a.2.2,0,0,1-.2-.2V41.005a.2.2,0,1,1,.4,0v2.655A.216.216,0,0,1,29.211,43.862Zm0-10.642a.2.2,0,0,1-.2-.2V30.364a.2.2,0,1,1,.4,0v2.655A.2.2,0,0,1,29.211,33.22Zm0-5.311a.2.2,0,0,1-.2-.2V25.053a.2.2,0,1,1,.4,0v2.655A.216.216,0,0,1,29.211,27.909Zm0-5.331a.2.2,0,0,1-.2-.2V19.722a.2.2,0,0,1,.4,0v2.655A.2.2,0,0,1,29.211,22.579Zm0-5.311a.2.2,0,0,1-.2-.2V14.411a.2.2,0,1,1,.4,0v2.655A.2.2,0,0,1,29.211,17.268Z" transform="translate(-29.01 -14.21)" fill="#303030"/>
      </g>
      <g id="Group_42" data-name="Group 42" transform="translate(0 62.683)">
        <path id="Path_70" data-name="Path 70" d="M29.211,39.931a.2.2,0,0,1-.2-.2V38.2a.2.2,0,1,1,.4,0V39.73A.2.2,0,0,1,29.211,39.931Z" transform="translate(-29.01 -38)" fill="#303030"/>
      </g>
    </g>
    <g id="Group_48" data-name="Group 48" transform="translate(43.523 13.296)">
      <g id="Group_44" data-name="Group 44">
        <path id="Path_71" data-name="Path 71" d="M21.9,8.771a.2.2,0,0,1-.2-.2V7.041a.2.2,0,1,1,.4,0V8.57A.2.2,0,0,1,21.9,8.771Z" transform="translate(-21.7 -6.84)" fill="#303030"/>
      </g>
      <g id="Group_45" data-name="Group 45" transform="translate(0 4.204)">
        <path id="Path_72" data-name="Path 72" d="M21.9,17.3a.2.2,0,0,1-.2-.2V14.442a.2.2,0,1,1,.4,0V17.1A.216.216,0,0,1,21.9,17.3Zm0-5.331a.2.2,0,0,1-.2-.2V9.131a.2.2,0,1,1,.4,0v2.655A.2.2,0,0,1,21.9,11.968Z" transform="translate(-21.7 -8.93)" fill="#303030"/>
      </g>
      <g id="Group_46" data-name="Group 46" transform="translate(0 14.826)">
        <path id="Path_73" data-name="Path 73" d="M21.9,59.814a.2.2,0,0,1-.2-.2V56.958a.2.2,0,0,1,.4,0v2.655A.216.216,0,0,1,21.9,59.814Zm0-5.331a.2.2,0,0,1-.2-.2V51.627a.2.2,0,0,1,.4,0v2.655A.2.2,0,0,1,21.9,54.483Zm0-5.311a.2.2,0,0,1-.2-.2V46.316a.2.2,0,1,1,.4,0v2.655A.2.2,0,0,1,21.9,49.173Zm0-5.311a.2.2,0,0,1-.2-.2V41.005a.2.2,0,1,1,.4,0v2.655A.216.216,0,0,1,21.9,43.862Zm0-5.331a.2.2,0,0,1-.2-.2V35.674a.2.2,0,1,1,.4,0V38.33A.2.2,0,0,1,21.9,38.531Zm0-5.311a.2.2,0,0,1-.2-.2V30.364a.2.2,0,0,1,.4,0v2.655A.2.2,0,0,1,21.9,33.22Zm0-5.311a.2.2,0,0,1-.2-.2V25.053a.2.2,0,1,1,.4,0v2.655A.216.216,0,0,1,21.9,27.909Zm0-5.331a.2.2,0,0,1-.2-.2V19.722a.2.2,0,0,1,.4,0v2.655A.2.2,0,0,1,21.9,22.579Zm0-5.311a.2.2,0,0,1-.2-.2V14.411a.2.2,0,0,1,.4,0v2.655A.2.2,0,0,1,21.9,17.268Z" transform="translate(-21.7 -14.21)" fill="#303030"/>
      </g>
      <g id="Group_47" data-name="Group 47" transform="translate(0 62.683)">
        <path id="Path_74" data-name="Path 74" d="M21.9,39.931a.2.2,0,0,1-.2-.2V38.2a.2.2,0,0,1,.4,0V39.73A.2.2,0,0,1,21.9,39.931Z" transform="translate(-21.7 -38)" fill="#303030"/>
      </g>
    </g>
    <g id="Group_53" data-name="Group 53" transform="translate(28.817 13.296)">
      <g id="Group_49" data-name="Group 49">
        <path id="Path_75" data-name="Path 75" d="M14.591,8.771a.2.2,0,0,1-.2-.2V7.041a.2.2,0,0,1,.2-.2.19.19,0,0,1,.2.2V8.57A.216.216,0,0,1,14.591,8.771Z" transform="translate(-14.39 -6.84)" fill="#303030"/>
      </g>
      <g id="Group_50" data-name="Group 50" transform="translate(0 4.204)">
        <path id="Path_76" data-name="Path 76" d="M14.591,17.3a.2.2,0,0,1-.2-.2V14.442a.2.2,0,0,1,.2-.2.19.19,0,0,1,.2.2V17.1A.235.235,0,0,1,14.591,17.3Zm0-5.331a.2.2,0,0,1-.2-.2V9.131a.2.2,0,0,1,.2-.2.19.19,0,0,1,.2.2v2.655A.214.214,0,0,1,14.591,11.968Z" transform="translate(-14.39 -8.93)" fill="#303030"/>
      </g>
      <g id="Group_51" data-name="Group 51" transform="translate(0 14.826)">
        <path id="Path_77" data-name="Path 77" d="M14.591,59.814a.2.2,0,0,1-.2-.2V56.958a.2.2,0,0,1,.2-.2.19.19,0,0,1,.2.2v2.655A.234.234,0,0,1,14.591,59.814Zm0-10.642a.2.2,0,0,1-.2-.2V46.316a.2.2,0,0,1,.2-.2.19.19,0,0,1,.2.2v2.655A.216.216,0,0,1,14.591,49.173Zm0-5.311a.2.2,0,0,1-.2-.2V41.005a.2.2,0,0,1,.2-.2.19.19,0,0,1,.2.2v2.655A.235.235,0,0,1,14.591,43.862Zm0-5.331a.2.2,0,0,1-.2-.2V35.674a.2.2,0,0,1,.2-.2.19.19,0,0,1,.2.2V38.33A.216.216,0,0,1,14.591,38.531Zm0-5.311a.2.2,0,0,1-.2-.2V30.364a.2.2,0,0,1,.2-.2.19.19,0,0,1,.2.2v2.655A.216.216,0,0,1,14.591,33.22Zm0-5.311a.2.2,0,0,1-.2-.2V25.053a.2.2,0,0,1,.2-.2.19.19,0,0,1,.2.2v2.655A.235.235,0,0,1,14.591,27.909Zm0-5.331a.2.2,0,0,1-.2-.2V19.722a.2.2,0,0,1,.2-.2.19.19,0,0,1,.2.2v2.655A.216.216,0,0,1,14.591,22.579Zm0-5.311a.2.2,0,0,1-.2-.2V14.411a.2.2,0,0,1,.2-.2.19.19,0,0,1,.2.2v2.655A.216.216,0,0,1,14.591,17.268Z" transform="translate(-14.39 -14.21)" fill="#303030"/>
      </g>
      <g id="Group_52" data-name="Group 52" transform="translate(0 62.683)">
        <path id="Path_78" data-name="Path 78" d="M14.591,39.931a.2.2,0,0,1-.2-.2V38.2a.2.2,0,0,1,.2-.2.19.19,0,0,1,.2.2V39.73A.216.216,0,0,1,14.591,39.931Z" transform="translate(-14.39 -38)" fill="#303030"/>
      </g>
    </g>
    <g id="Bubbles" transform="translate(26.552 18.065)">
      <circle id="Ellipse_14" data-name="Ellipse 14" cx="2.414" cy="2.414" r="2.414" transform="matrix(1, -0.023, 0.023, 1, 0, 45.252)" fill="#24313d" stroke="#2a2a2a" stroke-linecap="round" stroke-linejoin="round" stroke-miterlimit="10" stroke-width="1"/>
      <circle id="Ellipse_15" data-name="Ellipse 15" cx="2.414" cy="2.414" r="2.414" transform="matrix(1, -0.023, 0.023, 1, 7.863, 30.508)" fill="#ffac46" stroke="#2a2a2a" stroke-linecap="round" stroke-linejoin="round" stroke-miterlimit="10" stroke-width="1"/>
      <circle id="Ellipse_16" data-name="Ellipse 16" cx="2.414" cy="2.414" r="2.414" transform="matrix(1, -0.023, 0.023, 1, 21.081, 45.251)" fill="#ffac46" stroke="#2a2a2a" stroke-linecap="round" stroke-linejoin="round" stroke-miterlimit="10" stroke-width="1"/>
      <circle id="Ellipse_17" data-name="Ellipse 17" cx="2.414" cy="2.414" r="2.414" transform="matrix(1, -0.023, 0.023, 1, 21.08, 15.52)" fill="#24313d" stroke="#2a2a2a" stroke-linecap="round" stroke-linejoin="round" stroke-miterlimit="10" stroke-width="1"/>
      <circle id="Ellipse_18" data-name="Ellipse 18" cx="2.414" cy="2.414" r="2.414" transform="matrix(1, -0.023, 0.023, 1, 29.407, 30.628)" fill="#d9f3f4" stroke="#2a2a2a" stroke-linecap="round" stroke-linejoin="round" stroke-miterlimit="10" stroke-width="1"/>
      <circle id="Ellipse_19" data-name="Ellipse 19" cx="2.414" cy="2.414" r="2.414" transform="matrix(1, -0.023, 0.023, 1, 37.374, 15.519)" fill="#ffac46" stroke="#2a2a2a" stroke-linecap="round" stroke-linejoin="round" stroke-miterlimit="10" stroke-width="1"/>
      <circle id="Ellipse_20" data-name="Ellipse 20" cx="2.414" cy="2.414" r="2.414" transform="matrix(1, -0.023, 0.023, 1, 40.611, 0.11)" fill="#24313d" stroke="#2a2a2a" stroke-linecap="round" stroke-linejoin="round" stroke-miterlimit="10" stroke-width="1"/>
    </g>
  </g>
</svg>
